<?xml version="1.0" encoding="UTF-8" standalone="no"?>
<!DOCTYPE svg PUBLIC "-//W3C//DTD SVG 1.1//EN" "http://www.w3.org/Graphics/SVG/1.1/DTD/svg11.dtd">
<svg width="100%" height="100%" viewBox="0 0 250 150" version="1.1" xmlns="http://www.w3.org/2000/svg" xmlns:xlink="http://www.w3.org/1999/xlink" xml:space="preserve" xmlns:serif="http://www.serif.com/" style="fill-rule:evenodd;clip-rule:evenodd;stroke-linecap:round;stroke-linejoin:round;stroke-miterlimit:1.5;">
    <g transform="matrix(1,0,0,1,-18.4952,1.04866)">
        <g id="Layer1">
            <g>
                <g transform="matrix(1,0,0,1,-7.47938,13.4956)">
                    <path d="M86.334,25.686C84.764,25.683 68.048,23.142 66.577,44.109C65.26,62.874 87.338,69.416 100.178,55.69C105.922,49.55 106.122,30.303 86.313,25.351" style="fill:rgb(70,70,70);stroke:black;stroke-width:2.96px;"/>
                </g>
                <g transform="matrix(1.06166,0,0,1,-17.4648,-0.463698)">
                    <path d="M252.303,38.185C246.852,42.198 238.275,48.1 230.598,53.01C218.978,60.44 208.552,67.466 206.413,69.21C205.762,96.398 209.139,114.639 208.634,116.618C207.808,119.861 237.972,135.801 251.876,144.93" style="fill:rgb(192,185,51);fill-opacity:0.41;stroke:black;stroke-width:0.24px;"/>
                </g>
                <g transform="matrix(1,0,0,1,-7.47938,13.4956)">
                    <path d="M120.305,23.533C102.729,27.986 106.977,59.127 121.872,60.094C152.516,62.084 149.228,38.094 147.073,34.323C145.89,32.253 136.127,15.168 119.425,23.231" style="fill:rgb(70,70,70);stroke:black;stroke-width:2.96px;"/>
                </g>
                <g transform="matrix(1,0,0,1,-7.47938,13.4956)">
                    <path d="M88.405,26.328C71.472,39.933 71.347,39.679 67.383,43.643" style="fill:rgb(70,70,70);stroke:black;stroke-width:2.96px;"/>
                </g>
                <g transform="matrix(1,0,0,1,-7.47938,13.4956)">
                    <path d="M87.619,37.818C86.988,38.422 84.197,35.927 79.695,39.937C75.427,43.74 79.024,57.124 89.557,50.277C90.079,49.938 93.667,47.606 92.964,43.284C92.264,38.975 91.384,39.354 87.406,37.427" style="fill:rgb(70,70,70);stroke:black;stroke-width:2.96px;"/>
                </g>
                <g transform="matrix(1,0,0,1,-7.47938,13.4956)">
                    <path d="M83.042,38.921C83.37,39.83 85.913,46.881 87.465,50.158" style="fill:rgb(70,70,70);stroke:black;stroke-width:2.96px;"/>
                </g>
                <g transform="matrix(1,0,0,1,-7.47938,13.4956)">
                    <path d="M133.533,36.469C121.562,27.512 118.203,42.33 122.189,46.458C129.261,53.783 139.706,45.254 133.784,36.231" style="fill:rgb(70,70,70);stroke:black;stroke-width:2.96px;"/>
                </g>
                <g transform="matrix(1,0,0,1,-7.47938,13.4956)">
                    <path d="M124.623,34.908C124.801,35.211 130.154,45.916 130.633,46.875" style="fill:rgb(70,70,70);stroke:black;stroke-width:2.96px;"/>
                </g>
                <g transform="matrix(1,0,0,1,-7.47938,13.4956)">
                    <path d="M131.94,22.413C129.629,24.31 126.008,26.729 122.367,29.571C115.84,34.665 116.119,34.885 109.82,40.155" style="fill:rgb(70,70,70);stroke:black;stroke-width:2.96px;"/>
                </g>
                <g transform="matrix(1,0,0,1,-8.18729,12.8663)">
                    <path d="M78.248,62.691C78.346,65.053 79.054,82.091 80.022,92.189C81.344,105.972 80.171,105.964 81.778,119.619C96.267,117.7 164.823,118.584 165.75,117.534C166.062,117.18 166.212,116.679 166.247,116.209C167.415,100.556 161.919,57.206 161.753,56.499C157.191,55.974 143.602,55.507 142.558,56.655C136.95,62.823 120.337,61.034 115.225,57.815C114.327,57.249 114.341,58.247 101.972,58.394C96.806,58.456 95.968,61.619 88.637,63.281C82.973,64.565 82.755,63.46 78.283,63.116" style="fill:rgb(70,70,70);stroke:black;stroke-width:2.96px;"/>
                </g>
                <g transform="matrix(1,0,0,1,-8.18729,12.8663)">
                    <path d="M91.265,74.251C92.064,95.643 93.049,103.365 93.37,105.881C101.322,104.999 101.345,106.572 109.261,105.441C127.739,102.801 151.418,104.154 152.415,102.625C153.099,101.575 152.612,93.059 152.663,90.946C152.7,89.434 153.053,89.492 154.587,72.138C150.693,71.807 123.797,72.036 122.017,72.144C119.562,72.293 101.313,73.399 91.37,74.546" style="fill:rgb(70,70,70);stroke:black;stroke-width:2.96px;"/>
                </g>
                <g transform="matrix(1,0,0,1,-8.18729,12.8663)">
                    <path d="M92.067,90.105C89.798,91.866 84.05,97.535 81.845,99.146" style="fill:rgb(70,70,70);stroke:black;stroke-width:2.96px;"/>
                </g>
                <g transform="matrix(1,0,0,1,-8.18729,12.8663)">
                    <path d="M92.154,95.853C91.322,96.543 85.078,101.727 82.093,104.861" style="fill:rgb(70,70,70);stroke:black;stroke-width:2.96px;"/>
                </g>
                <g transform="matrix(1,0,0,1,-8.18729,12.8663)">
                    <path d="M103.798,106.39C102.35,109.414 97.457,113.86 94.932,117.534" style="fill:rgb(70,70,70);stroke:black;stroke-width:2.96px;"/>
                </g>
                <g transform="matrix(1,0,0,1,-8.18729,12.8663)">
                    <path d="M114.53,105.709C105.305,116.05 105.24,115.958 104.457,116.871" style="fill:rgb(70,70,70);stroke:black;stroke-width:2.96px;"/>
                </g>
                <g transform="matrix(1,0,0,1,-8.18729,12.8663)">
                    <path d="M78.105,76.877C68.126,78.666 67.212,79.477 63.622,74.877C58.012,67.689 53.246,88.505 60.889,87.55C64.249,87.13 62.619,84.278 66.024,83.74C66.166,83.718 73.9,83.506 76.378,83.243C80.281,82.829 78.501,81.098 78.614,77.197" style="fill:rgb(70,70,70);stroke:black;stroke-width:2.96px;"/>
                </g>
                <g transform="matrix(1,0,0,1,-8.18729,12.8663)">
                    <path d="M164.556,71.111C165.026,71.077 170.217,70.706 170.434,70.675C172.914,77.908 170.698,91.191 172.104,97.164C173.084,101.33 171.243,101.156 167.169,101.156" style="fill:rgb(70,70,70);stroke:black;stroke-width:2.96px;"/>
                </g>
                <g transform="matrix(1,0,0,1,-8.18729,12.8663)">
                    <path d="M172.1,73.315C183.691,77.167 185.354,73.162 186.618,75.901C186.78,76.252 188.253,90.157 188.215,90.197C184.299,94.344 173.455,96.382 172.902,97.673" style="fill:rgb(70,70,70);stroke:black;stroke-width:2.96px;"/>
                </g>
                <g transform="matrix(1,0,0,1,-8.18729,12.8663)">
                    <path d="M176.182,75.269C175.936,76.129 176.858,76.064 177.692,86.351C177.746,87.015 178.223,92.909 178.635,94.624" style="fill:rgb(70,70,70);stroke:black;stroke-width:2.96px;"/>
                </g>
                <g transform="matrix(1,0,0,1,-8.18729,12.8663)">
                    <path d="M181.273,75.75C180.915,77.133 181.17,77.143 183.207,92.084" style="fill:rgb(70,70,70);stroke:black;stroke-width:2.96px;"/>
                </g>
                <g transform="matrix(1,0,0,1,-8.18729,12.8663)">
                    <path d="M187.953,76.847C188.13,76.593 207.95,55.855 208.535,55.725C211.453,55.077 208.592,57.677 211.148,93.463C211.966,104.918 214.177,106.546 211.801,106.309C211.288,106.257 192.854,93.312 189.231,89.689" style="fill:rgb(70,70,70);stroke:black;stroke-width:2.96px;"/>
                </g>
                <g transform="matrix(1,0,0,1,-8.18729,12.8663)">
                    <path d="M131.049,94.59C126.284,90.372 124.693,93.465 125.371,95.726C126.007,97.846 129.554,100.333 131.258,95.505" style="fill:rgb(70,70,70);stroke:black;stroke-width:2.96px;"/>
                </g>
                <g transform="matrix(1,0,0,1,-8.18729,12.8663)">
                    <path d="M142.308,93.624C140.633,90.755 133.638,91.765 136.335,96.388C136.628,96.891 139.038,97.897 140.309,97.565C142.463,97.004 141.702,96.287 142.148,94.181" style="fill:rgb(70,70,70);stroke:black;stroke-width:2.96px;"/>
                </g>
                <g transform="matrix(1,0,0,1,-8.18729,12.8663)">
                    <path d="M90.419,120.082C96.396,134.826 115.111,131.417 123.605,130.678C133.69,129.801 151.214,130.075 155.099,118.905" style="fill:rgb(70,70,70);stroke:black;stroke-width:2.96px;"/>
                </g>
            </g>
        </g>
    </g>
    <g id="Layer2" transform="matrix(-0.455107,-0.42506,-0.42506,0.455107,216.523,49.6931)">
        <g>
            <path d="M139.021,93.699C138.437,93.84 79.277,67.376 80.408,95.66C81.765,129.579 183.271,155.753 185.445,134.63C186.626,123.16 179.217,114.975 175.488,111.076C172.522,107.976 172.526,107.767 139.103,93.841C138.988,93.793 138.998,93.883 137.571,93.554" style="fill:rgb(112,93,71);stroke:black;stroke-width:4.75px;"/>
            <path d="M98.627,95.564C100.051,92.82 110.325,57.758 124.466,51.792C132.169,48.543 170.455,64.141 181.81,70.196C193.551,76.459 178.331,97.621 172.704,121.534" style="fill:rgb(112,93,71);stroke:black;stroke-width:4.75px;"/>
            <path d="M123.323,53.539C129.479,60.742 161.893,77.528 185.16,75.413" style="fill:rgb(112,93,71);stroke:black;stroke-width:4.75px;"/>
            <g transform="matrix(-1.17357,-1.09608,-1.09608,1.17357,335.74,202.819)">
                <path d="M108.728,32.454C117.879,48.636 144.525,54.462 153.11,52.804C153.276,52.399 154.793,48.699 155.348,47.812C134.524,40.077 121.79,41.346 112.306,26.805" style="fill:rgb(194,173,150);stroke:black;stroke-width:2.96px;"/>
            </g>
            <g transform="matrix(-1.17357,-1.09608,-1.09608,1.17357,335.74,202.819)">
                <path d="M111.331,26.951C110.075,30.348 109.384,31.556 109.169,31.933" style="fill:rgb(112,93,71);stroke:black;stroke-width:2.96px;"/>
            </g>
        </g>
    </g>
</svg>
