<?xml version="1.0" encoding="UTF-8" standalone="no"?><!DOCTYPE svg PUBLIC "-//W3C//DTD SVG 1.1//EN" "http://www.w3.org/Graphics/SVG/1.1/DTD/svg11.dtd"><svg width="100%" height="100%" viewBox="0 0 125 75" version="1.1" xmlns="http://www.w3.org/2000/svg" xmlns:xlink="http://www.w3.org/1999/xlink" xml:space="preserve" xmlns:serif="http://www.serif.com/" style="fill-rule:evenodd;clip-rule:evenodd;stroke-linecap:round;stroke-linejoin:round;stroke-miterlimit:1.5;"><g id="Layer1"><g><path d="M30.18,20.115c-0.785,-0.001 -9.143,-1.272 -9.879,9.212c-0.658,9.382 10.381,12.653 16.801,5.79c2.871,-3.07 2.972,-12.693 -6.933,-15.169" style="fill:#464646;stroke:#000;stroke-width:1.48px;"/><path d="M47.165,19.039c-8.788,2.226 -6.664,17.797 0.784,18.28c15.322,0.995 13.678,-11 12.6,-12.886c-0.591,-1.034 -5.473,-9.577 -13.824,-5.545" style="fill:#464646;stroke:#000;stroke-width:1.48px;"/><path d="M31.215,20.436c-8.466,6.803 -8.529,6.676 -10.511,8.658" style="fill:#464646;stroke:#000;stroke-width:1.48px;"/><path d="M30.822,26.181c-0.315,0.302 -1.711,-0.946 -3.962,1.06c-2.134,1.901 -0.335,8.593 4.931,5.17c0.261,-0.17 2.055,-1.336 1.704,-3.497c-0.35,-2.155 -0.79,-1.965 -2.78,-2.928" style="fill:#464646;stroke:#000;stroke-width:1.48px;"/><path d="M28.534,26.733c0.164,0.454 1.435,3.98 2.211,5.618" style="fill:#464646;stroke:#000;stroke-width:1.48px;"/><path d="M53.779,25.507c-5.985,-4.479 -7.665,2.93 -5.672,4.994c3.536,3.663 8.759,-0.602 5.798,-5.114" style="fill:#464646;stroke:#000;stroke-width:1.48px;"/><path d="M49.324,24.726c0.089,0.151 2.765,5.504 3.005,5.983" style="fill:#464646;stroke:#000;stroke-width:1.48px;"/><path d="M52.983,18.479c-1.156,0.948 -2.966,2.158 -4.787,3.579c-3.263,2.547 -3.124,2.657 -6.273,5.292" style="fill:#464646;stroke:#000;stroke-width:1.48px;"/><path d="M25.783,38.303c0.049,1.181 0.403,9.7 0.887,14.749c0.661,6.892 0.074,6.888 0.878,13.715c7.244,-0.959 41.522,-0.517 41.986,-1.042c0.156,-0.177 0.231,-0.428 0.248,-0.663c0.584,-7.827 -2.164,-29.502 -2.247,-29.855c-2.281,-0.263 -9.075,-0.496 -9.597,0.078c-2.804,3.084 -11.111,2.189 -13.667,0.58c-0.449,-0.283 -0.442,0.216 -6.626,0.29c-2.583,0.03 -3.002,1.612 -6.668,2.443c-2.832,0.642 -2.941,0.089 -5.177,-0.083" style="fill:#464646;stroke:#000;stroke-width:1.48px;"/><path d="M32.291,44.083c0.4,10.696 0.892,14.557 1.053,15.815c3.976,-0.441 3.987,0.345 7.945,-0.22c9.239,-1.32 21.079,-0.644 21.577,-1.408c0.342,-0.525 0.099,-4.783 0.124,-5.839c0.019,-0.756 0.195,-0.728 0.962,-9.405c-1.947,-0.165 -15.395,-0.05 -16.285,0.003c-1.227,0.075 -10.352,0.628 -15.323,1.201" style="fill:#464646;stroke:#000;stroke-width:1.48px;"/><path d="M32.692,52.01c-1.135,0.881 -4.008,3.715 -5.111,4.521" style="fill:#464646;stroke:#000;stroke-width:1.48px;"/><path d="M32.736,54.884c-0.416,0.345 -3.538,2.937 -5.031,4.504" style="fill:#464646;stroke:#000;stroke-width:1.48px;"/><path d="M38.558,60.153c-0.724,1.512 -3.171,3.735 -4.433,5.572" style="fill:#464646;stroke:#000;stroke-width:1.48px;"/><path d="M43.924,59.812c-4.613,5.171 -4.645,5.125 -5.037,5.581" style="fill:#464646;stroke:#000;stroke-width:1.48px;"/><path d="M25.711,45.396c-4.989,0.894 -5.446,1.3 -7.241,-1c-2.805,-3.594 -5.188,6.814 -1.367,6.337c1.68,-0.21 0.865,-1.637 2.568,-1.906c0.071,-0.011 3.938,-0.117 5.177,-0.248c1.951,-0.207 1.061,-1.073 1.118,-3.023" style="fill:#464646;stroke:#000;stroke-width:1.48px;"/><path d="M68.937,42.513c0.235,-0.017 2.83,-0.202 2.939,-0.218c1.24,3.617 0.132,10.258 0.835,13.245c0.49,2.082 -0.431,1.996 -2.468,1.996" style="fill:#464646;stroke:#000;stroke-width:1.48px;"/><path d="M72.709,43.615c5.795,1.926 6.627,-0.077 7.259,1.293c0.081,0.176 0.817,7.128 0.798,7.148c-1.958,2.073 -7.38,3.092 -7.656,3.738" style="fill:#464646;stroke:#000;stroke-width:1.48px;"/><path d="M74.75,44.592c-0.123,0.43 0.338,0.397 0.755,5.541c0.027,0.332 0.265,3.279 0.471,4.137" style="fill:#464646;stroke:#000;stroke-width:1.48px;"/><path d="M77.295,44.833c-0.179,0.691 -0.051,0.696 0.967,8.167" style="fill:#464646;stroke:#000;stroke-width:1.48px;"/><path d="M80.635,45.381c0.089,-0.127 9.999,-10.496 10.291,-10.561c1.459,-0.324 0.029,0.976 1.307,18.869c0.409,5.727 1.514,6.542 0.326,6.423c-0.256,-0.026 -9.473,-6.498 -11.285,-8.31" style="fill:#464646;stroke:#000;stroke-width:1.48px;"/><path d="M52.183,54.253c-2.382,-2.109 -3.178,-0.563 -2.839,0.567c0.318,1.061 2.092,2.304 2.944,-0.11" style="fill:#464646;stroke:#000;stroke-width:1.48px;"/><path d="M57.813,53.769c-0.838,-1.434 -4.335,-0.929 -2.987,1.383c0.147,0.251 1.352,0.754 1.987,0.588c1.077,-0.281 0.696,-0.639 0.92,-1.692" style="fill:#464646;stroke:#000;stroke-width:1.48px;"/><path d="M31.868,66.999c2.989,7.371 12.346,5.667 16.593,5.298c5.043,-0.439 13.805,-0.302 15.747,-5.887" style="fill:#464646;stroke:#000;stroke-width:1.48px;"/></g></g><g><g id="Layer2"><path d="M56.713,16.622c0.103,0.156 19.189,6.708 12.92,12.903c-7.517,7.43 -36.178,-8.187 -32.183,-13.456c2.169,-2.861 5.594,-3.148 7.272,-3.243c1.333,-0.075 1.377,-0.124 11.942,3.811c0.036,0.013 0.015,0.032 0.41,0.26" style="fill:#705d47;stroke:#000;stroke-width:1.48px;"/><path d="M65.508,25.631c0.259,-0.927 5.373,-11.089 3.423,-15.452c-1.062,-2.376 -13.089,-6.964 -16.96,-7.999c-4.003,-1.07 -5.037,6.98 -8.839,13.617" style="fill:#705d47;stroke:#000;stroke-width:1.48px;"/><path d="M68.82,10.82c-2.932,0.33 -13.875,-2.739 -18.72,-8.165" style="fill:#705d47;stroke:#000;stroke-width:1.48px;"/><path d="M43.122,15.871c4.575,8.091 17.898,11.004 22.19,10.175c0.083,-0.202 0.842,-2.052 1.119,-2.496c-10.412,-3.867 -16.779,-3.233 -21.521,-10.503" style="fill:#c2ad96;stroke:#000;stroke-width:1.48px;"/><path d="M44.423,13.12c-0.628,1.698 -0.974,2.302 -1.081,2.491" style="fill:#705d47;stroke:#000;stroke-width:1.48px;"/></g></g></svg>